<svg xmlns="http://www.w3.org/2000/svg" fill="none" stroke="#fff" stroke-linecap="round" stroke-width="2" viewBox="0 0 2041.4 350"><path d="M158 275.5c-16 15-38 25-62 25-50 0-90-41-90-91s40-90 90-90c25 0 47 10 63 25" vector-effect="non-scaling-stroke"/><path d="M309 300.5H206v-174" vector-effect="non-scaling-stroke"/><path d="m531.1 300.5-88-174-88 174m19-38h138" vector-effect="non-scaling-stroke"/><path d="m711.2 300-56-72m-79 0h84c28 0 51-22.5 51-50.5s-23-51-51-51h-84V300" vector-effect="non-scaling-stroke"/><path d="M759.2 300.6v-174" vector-effect="non-scaling-stroke"/><path d="M957.2 275.5c-16 15-38 25-62 25-50 0-90-41-90-91s40-90 90-90c25 0 47 10 63 25" vector-effect="non-scaling-stroke"/><path d="M1121.2 300.5h-116v-174h116m-116 87h99" vector-effect="non-scaling-stroke"/><path d="M1337.2 300V126.5m-73 0h146" vector-effect="non-scaling-stroke"/><path d="m1588.2 300-56-72m-79 0h84c28 0 51-22.5 51-50.5s-23-51-51-51h-84V300" vector-effect="non-scaling-stroke"/><path d="m1812.3 300.5-88-174-88 174m19-38h138" vector-effect="non-scaling-stroke"/><path d="M1857.4 300.5v-174l147 174v-174" vector-effect="non-scaling-stroke"/></svg>